{
    "asset" : {
        "generator" : "Khronos glTF Blender I/O v3.3.32",
        "version" : "2.0"
    },
    "scene" : 0,
    "scenes" : [
        {
            "name" : "Scene",
            "nodes" : [
                0,
                1,
                2,
                3
            ]
        }
    ],
    "nodes" : [
        {
            "mesh" : 0,
            "name" : "hanse",
            "rotation" : [
                -0.1743556261062622,
                0.17435559630393982,
                -0.6852737069129944,
                0.6852738261222839
            ],
            "scale" : [
                1,
                0.5087342262268066,
                1
            ],
            "translation" : [
                -0.005277399439364672,
                0.974513590335846,
                0.003793011885136366
            ]
        },
        {
            "mesh" : 1,
            "name" : "hanse2",
            "rotation" : [
                0,
                -0.5109184384346008,
                0,
                0.859629213809967
            ],
            "scale" : [
                1.0612432956695557,
                1.0612434148788452,
                1.0612432956695557
            ],
            "translation" : [
                0.09359671175479889,
                0.9559670686721802,
                0.18656733632087708
            ]
        },
        {
            "mesh" : 2,
            "name" : "Chaudron",
            "rotation" : [
                0,
                -0.510918378829956,
                0,
                0.859629213809967
            ],
            "scale" : [
                -0.1295216828584671,
                -0.007728924974799156,
                -0.1295216828584671
            ],
            "translation" : [
                0.00020986342860851437,
                0.7065517902374268,
                0.003932102583348751
            ]
        },
        {
            "mesh" : 3,
            "name" : "socle",
            "scale" : [
                0.44234609603881836,
                0.44234609603881836,
                0.44234609603881836
            ],
            "translation" : [
                0.0036793311592191458,
                0.45127785205841064,
                -0.009585153311491013
            ]
        }
    ],
    "materials" : [
        {
            "doubleSided" : true,
            "name" : "Chaudron",
            "pbrMetallicRoughness" : {
                "baseColorFactor" : [
                    0.800000011920929,
                    0.800000011920929,
                    0.800000011920929,
                    1
                ],
                "metallicFactor" : 0,
                "roughnessFactor" : 0.5
            }
        },
        {
            "doubleSided" : true,
            "name" : "Hanse",
            "pbrMetallicRoughness" : {
                "baseColorFactor" : [
                    0.800000011920929,
                    0.800000011920929,
                    0.800000011920929,
                    1
                ],
                "metallicFactor" : 0,
                "roughnessFactor" : 0.5
            }
        },
        {
            "doubleSided" : true,
            "name" : "Socle",
            "pbrMetallicRoughness" : {
                "baseColorFactor" : [
                    0.800000011920929,
                    0.800000011920929,
                    0.800000011920929,
                    1
                ],
                "metallicFactor" : 0,
                "roughnessFactor" : 0.5
            }
        }
    ],
    "meshes" : [
        {
            "name" : "Torus.005",
            "primitives" : [
                {
                    "attributes" : {
                        "POSITION" : 0,
                        "NORMAL" : 1,
                        "TEXCOORD_0" : 2
                    },
                    "indices" : 3,
                    "material" : 0
                }
            ]
        },
        {
            "name" : "Torus.004",
            "primitives" : [
                {
                    "attributes" : {
                        "POSITION" : 4,
                        "NORMAL" : 5,
                        "TEXCOORD_0" : 6
                    },
                    "indices" : 7,
                    "material" : 1
                }
            ]
        },
        {
            "name" : "Cylinder.001",
            "primitives" : [
                {
                    "attributes" : {
                        "POSITION" : 8,
                        "NORMAL" : 9,
                        "TEXCOORD_0" : 10
                    },
                    "indices" : 11,
                    "material" : 0
                }
            ]
        },
        {
            "name" : "BezierCircle.001",
            "primitives" : [
                {
                    "attributes" : {
                        "POSITION" : 12,
                        "NORMAL" : 13,
                        "TEXCOORD_0" : 14
                    },
                    "indices" : 15,
                    "material" : 2
                }
            ]
        }
    ],
    "accessors" : [
        {
            "bufferView" : 0,
            "componentType" : 5126,
            "count" : 704,
            "max" : [
                0.03923942893743515,
                0.7717491984367371,
                0.06999999284744263
            ],
            "min" : [
                -0.044041991233825684,
                -0.7717490792274475,
                -0.06999999284744263
            ],
            "type" : "VEC3"
        },
        {
            "bufferView" : 1,
            "componentType" : 5126,
            "count" : 704,
            "type" : "VEC3"
        },
        {
            "bufferView" : 2,
            "componentType" : 5126,
            "count" : 704,
            "type" : "VEC2"
        },
        {
            "bufferView" : 3,
            "componentType" : 5123,
            "count" : 3600,
            "type" : "SCALAR"
        },
        {
            "bufferView" : 4,
            "componentType" : 5126,
            "count" : 701,
            "max" : [
                0.22103185951709747,
                0.020655112341046333,
                0.4144842028617859
            ],
            "min" : [
                -0.2224876880645752,
                -0.023740896955132484,
                -0.41718339920043945
            ],
            "type" : "VEC3"
        },
        {
            "bufferView" : 5,
            "componentType" : 5126,
            "count" : 701,
            "type" : "VEC3"
        },
        {
            "bufferView" : 6,
            "componentType" : 5126,
            "count" : 701,
            "type" : "VEC2"
        },
        {
            "bufferView" : 7,
            "componentType" : 5123,
            "count" : 2958,
            "type" : "SCALAR"
        },
        {
            "bufferView" : 8,
            "componentType" : 5126,
            "count" : 5915,
            "max" : [
                3.9210848808288574,
                47.8752326965332,
                3.9166741371154785
            ],
            "min" : [
                -3.9154157638549805,
                -31.76158905029297,
                -3.9198262691497803
            ],
            "type" : "VEC3"
        },
        {
            "bufferView" : 9,
            "componentType" : 5126,
            "count" : 5915,
            "type" : "VEC3"
        },
        {
            "bufferView" : 10,
            "componentType" : 5126,
            "count" : 5915,
            "type" : "VEC2"
        },
        {
            "bufferView" : 11,
            "componentType" : 5123,
            "count" : 34176,
            "type" : "SCALAR"
        },
        {
            "bufferView" : 12,
            "componentType" : 5126,
            "count" : 5013,
            "max" : [
                1.0792008638381958,
                0.22092734277248383,
                1.3795126676559448
            ],
            "min" : [
                -1.5419985055923462,
                -1.0503597259521484,
                -1.307316780090332
            ],
            "type" : "VEC3"
        },
        {
            "bufferView" : 13,
            "componentType" : 5126,
            "count" : 5013,
            "type" : "VEC3"
        },
        {
            "bufferView" : 14,
            "componentType" : 5126,
            "count" : 5013,
            "type" : "VEC2"
        },
        {
            "bufferView" : 15,
            "componentType" : 5123,
            "count" : 28800,
            "type" : "SCALAR"
        }
    ],
    "bufferViews" : [
        {
            "buffer" : 0,
            "byteLength" : 8448,
            "byteOffset" : 0,
            "target" : 34962
        },
        {
            "buffer" : 0,
            "byteLength" : 8448,
            "byteOffset" : 8448,
            "target" : 34962
        },
        {
            "buffer" : 0,
            "byteLength" : 5632,
            "byteOffset" : 16896,
            "target" : 34962
        },
        {
            "buffer" : 0,
            "byteLength" : 7200,
            "byteOffset" : 22528,
            "target" : 34963
        },
        {
            "buffer" : 0,
            "byteLength" : 8412,
            "byteOffset" : 29728,
            "target" : 34962
        },
        {
            "buffer" : 0,
            "byteLength" : 8412,
            "byteOffset" : 38140,
            "target" : 34962
        },
        {
            "buffer" : 0,
            "byteLength" : 5608,
            "byteOffset" : 46552,
            "target" : 34962
        },
        {
            "buffer" : 0,
            "byteLength" : 5916,
            "byteOffset" : 52160,
            "target" : 34963
        },
        {
            "buffer" : 0,
            "byteLength" : 70980,
            "byteOffset" : 58076,
            "target" : 34962
        },
        {
            "buffer" : 0,
            "byteLength" : 70980,
            "byteOffset" : 129056,
            "target" : 34962
        },
        {
            "buffer" : 0,
            "byteLength" : 47320,
            "byteOffset" : 200036,
            "target" : 34962
        },
        {
            "buffer" : 0,
            "byteLength" : 68352,
            "byteOffset" : 247356,
            "target" : 34963
        },
        {
            "buffer" : 0,
            "byteLength" : 60156,
            "byteOffset" : 315708,
            "target" : 34962
        },
        {
            "buffer" : 0,
            "byteLength" : 60156,
            "byteOffset" : 375864,
            "target" : 34962
        },
        {
            "buffer" : 0,
            "byteLength" : 40104,
            "byteOffset" : 436020,
            "target" : 34962
        },
        {
            "buffer" : 0,
            "byteLength" : 57600,
            "byteOffset" : 476124,
            "target" : 34963
        }
    ],
    "buffers" : [
        {
            "byteLength" : 533724,
            "uri" : "data:application/octet-stream;base64,"
        }
    ]
}
